<svg xmlns="http://www.w3.org/2000/svg" width="256" height="256" viewBox="0 0 100 100"><rect width="100" height="100" rx="50" fill="#2f00ff"></rect><path d="M17.33 27.60L31.92 27.60Q35.25 27.60 38.16 29.52Q41.07 31.44 42.86 34.70Q44.66 37.97 44.66 42L44.66 42Q44.66 45.97 42.86 49.23Q41.07 52.50 38.16 54.45Q35.25 56.40 31.92 56.40L31.92 56.40L20.14 56.40L20.78 55.25L20.78 68.50Q20.78 70.16 19.76 71.28Q18.74 72.40 17.07 72.40L17.07 72.40Q15.47 72.40 14.45 71.28Q13.42 70.16 13.42 68.50L13.42 68.50L13.42 31.50Q13.42 29.84 14.54 28.72Q15.66 27.60 17.33 27.60L17.33 27.60ZM20.08 49.10L31.92 49.10Q33.14 49.10 34.29 48.08Q35.44 47.06 36.21 45.42Q36.98 43.79 36.98 42L36.98 42Q36.98 40.14 36.21 38.54Q35.44 36.94 34.29 35.95Q33.14 34.96 31.92 34.96L31.92 34.96L20.02 34.96L20.78 33.81L20.78 50.13L20.08 49.10ZM55.92 27.60L72.05 27.60Q78.19 27.60 81.20 30.48Q84.21 33.36 84.21 38.99L84.21 38.99Q84.21 42 82.74 44.27Q81.26 46.54 78.38 47.79Q75.50 49.04 71.28 49.04L71.28 49.04L71.54 46.16Q73.52 46.16 76.08 46.70Q78.64 47.25 81.04 48.62Q83.44 50 85.01 52.46Q86.58 54.93 86.58 58.77L86.58 58.77Q86.58 62.99 85.20 65.68Q83.82 68.37 81.58 69.84Q79.34 71.31 76.78 71.86Q74.22 72.40 71.86 72.40L71.86 72.40L55.92 72.40Q54.26 72.40 53.14 71.28Q52.02 70.16 52.02 68.50L52.02 68.50L52.02 31.50Q52.02 29.84 53.14 28.72Q54.26 27.60 55.92 27.60L55.92 27.60ZM70.90 35.15L70.90 35.15L59.50 35.15L60.34 34.13L60.34 45.71L59.57 45.14L71.09 45.14Q72.94 45.14 74.42 43.92Q75.89 42.70 75.89 40.40L75.89 40.40Q75.89 37.65 74.51 36.40Q73.14 35.15 70.90 35.15ZM71.41 52.69L71.41 52.69L59.76 52.69L60.34 52.18L60.34 65.68L59.70 65.04L71.86 65.04Q74.80 65.04 76.53 63.47Q78.26 61.90 78.26 58.77L78.26 58.77Q78.26 55.89 77.10 54.61Q75.95 53.33 74.35 53.01Q72.75 52.69 71.41 52.69Z" fill="#ffffff"></path></svg>